<?xml version="1.0" encoding="UTF-8" standalone="no"?>
<svg
   xmlns:dc="http://purl.org/dc/elements/1.1/"
   xmlns:cc="http://creativecommons.org/ns#"
   xmlns:rdf="http://www.w3.org/1999/02/22-rdf-syntax-ns#"
   xmlns:svg="http://www.w3.org/2000/svg"
   xmlns="http://www.w3.org/2000/svg"
   xmlns:sodipodi="http://sodipodi.sourceforge.net/DTD/sodipodi-0.dtd"
   xmlns:inkscape="http://www.inkscape.org/namespaces/inkscape"
   version="1.1"
   id="svg58"
   sodipodi:docname="cf.svg"
   inkscape:version="0.92.4 (5da689c313, 2019-01-14)"
   width="500"
   height="300">
  <metadata
     id="metadata64">
    <rdf:RDF>
      <cc:Work
         rdf:about="">
        <dc:format>image/svg+xml</dc:format>
        <dc:type
           rdf:resource="http://purl.org/dc/dcmitype/StillImage" />
        <dc:title></dc:title>
      </cc:Work>
    </rdf:RDF>
  </metadata>
  <defs
     id="defs62" />
  <sodipodi:namedview
     pagecolor="#ffffff"
     bordercolor="#666666"
     borderopacity="1"
     objecttolerance="10"
     gridtolerance="10"
     guidetolerance="10"
     inkscape:pageopacity="0"
     inkscape:pageshadow="2"
     inkscape:window-width="1276"
     inkscape:window-height="985"
     id="namedview60"
     showgrid="false"
     showguides="true"
     inkscape:zoom="1"
     inkscape:cx="269.89898"
     inkscape:cy="286.07511"
     inkscape:window-x="1366"
     inkscape:window-y="18"
     inkscape:window-maximized="0"
     inkscape:current-layer="svg58" />
  <g
     id="g1170"
     transform="translate(41.860152)">
    <path
       style="fill:#006dd9;fill-opacity:1;stroke-width:2.29017806"
       inkscape:connector-curvature="0"
       id="path48"
       d="m 65.098451,267.36737 c 0,-2.54209 -2.061161,-4.58034 -4.580356,-4.58034 H 46.044171 l 2.19857,-10.46612 c 0.0458,-0.22901 0.06871,-0.48095 0.06871,-0.73286 0,-0.93898 -0.389331,-1.80925 -1.007678,-2.4276 l -2.42759,-2.40467 -15.069371,15.06937 c -0.847365,0.84735 -1.351205,1.99245 -1.351205,3.25206 v 22.90177 a 4.580356,4.580356 0 0 0 4.580356,4.58035 h 20.611595 c 1.900849,0 3.526874,-1.1451 4.213928,-2.79402 l 6.916336,-16.14576 c 0.206118,-0.52672 0.320626,-1.07637 0.320626,-1.67182 v -4.58036 M 14.71453,292.55933 h 9.160712 V 265.07721 H 14.71453 Z" />
    <path
       style="fill:#00cc4f;fill-opacity:1;stroke-width:2.29017806"
       inkscape:connector-curvature="0"
       id="path50"
       d="m 23.875248,207.2696 v 27.48214 H 14.714536 V 207.2696 h 9.160712 m 9.160712,27.48214 a 4.580356,4.580356 0 0 1 -4.580356,-4.58036 V 207.2696 c 0,-1.25959 0.50384,-2.40469 1.351205,-3.22916 l 15.06937,-15.09226 2.427589,2.42758 c 0.618348,0.61836 1.007679,1.46572 1.007679,2.4047 l -0.06871,0.73284 -2.17567,10.46613 h 14.451027 c 2.542095,0 4.580355,2.06115 4.580355,4.58035 v 4.58035 c 0,0.59544 -0.114496,1.14509 -0.320625,1.67183 l -6.916338,16.14576 c -0.687052,1.64893 -2.31308,2.79402 -4.213928,2.79402 H 33.03596 m 0,-4.58036 h 20.680308 l 6.80183,-16.03125 v -4.58035 H 40.387431 l 2.587901,-12.18375 -9.939372,9.96228 z" />
    <path
       style="fill:#e8d600;fill-opacity:1;stroke-width:2.29017806"
       inkscape:connector-curvature="0"
       id="path52"
       d="M 66.24354,154.04238 H 50.784839 c -1.41991,0 -2.633705,0.87027 -3.160445,2.08406 L 42.44859,168.2415 c -0.160312,0.38932 -0.251918,0.82446 -0.251918,1.25959 v 2.86272 a 2.2901779,2.2901779 0 0 0 2.290177,2.29018 h 11.863123 l -1.557322,7.28276 v 0.54965 c 0,0.70994 0.297722,1.3283 0.755759,1.83213 l 1.809241,1.78635 11.313478,-11.31349 c 0.618349,-0.61833 1.007678,-1.4886 1.007678,-2.42758 v -14.88616 a 3.435267,3.435267 0 0 0 -3.435266,-3.43527 m -24.046868,-9.16071 a 2.2901779,2.2901779 0 0 0 -2.290179,-2.29018 H 28.043371 l 1.557321,-7.28276 v -0.52675 c 0,-0.70995 -0.297722,-1.35121 -0.755758,-1.83214 l -1.809239,-1.80925 -11.313481,11.31349 c -0.618347,0.61835 -1.007678,1.48862 -1.007678,2.42759 v 14.88616 a 3.435267,3.435267 0 0 0 3.435268,3.43526 h 15.4587 c 1.419911,0 2.633704,-0.87026 3.160445,-2.08406 l 5.175802,-12.11504 c 0.160313,-0.38932 0.251921,-0.82447 0.251921,-1.25959 z" />
    <path
       style="fill:#e58400;fill-opacity:1;stroke-width:2.29017806"
       inkscape:connector-curvature="0"
       id="path54"
       d="M 55.937736,100.81514 V 73.333013 h 9.160713 V 100.81514 H 55.937736 M 46.777025,73.333013 a 4.580356,4.580356 0 0 1 4.580356,4.580347 v 22.90178 c 0,1.2596 -0.503839,2.40469 -1.351205,3.22915 l -15.06937,15.09228 -2.427586,-2.4276 c -0.618349,-0.61834 -1.007678,-1.46571 -1.007678,-2.42758 l 0.06871,-0.70995 2.175668,-10.46612 H 19.294893 c -2.542098,0 -4.580356,-2.06116 -4.580356,-4.58035 v -4.580361 c 0,-0.595444 0.114512,-1.145083 0.320626,-1.671835 l 6.91633,-16.145746 c 0.687053,-1.648932 2.313078,-2.794015 4.213928,-2.794015 H 46.77702 m 0,4.580347 h -20.6803 l -6.801829,16.031249 v 4.580361 h 20.107761 l -2.587901,12.18375 9.962274,-9.96228 z" />
    <path
       style="fill:#ef2a10;fill-opacity:1;stroke-width:2.29017806"
       inkscape:connector-curvature="0"
       id="path56"
       d="m 55.937739,43.007557 h 9.160712 V 15.52542 h -9.160712 m -9.160712,0 h -20.6116 c -1.90085,0 -3.526876,1.145098 -4.213928,2.79403 l -6.916338,16.145746 c -0.206115,0.526751 -0.320625,1.076391 -0.320625,1.671834 v 4.580361 a 4.580356,4.580356 0 0 0 4.580355,4.580347 h 14.451024 l -2.17567,10.466121 c -0.0458,0.229007 -0.06869,0.45803 -0.06869,0.709955 0,0.961865 0.38933,1.809233 1.007678,2.427579 l 2.42759,2.427594 15.069371,-15.092272 c 0.847366,-0.824466 1.351205,-1.969549 1.351205,-3.229143 V 20.105781 c 0,-2.542091 -2.06116,-4.580361 -4.580357,-4.580361 z" />
    <g
       transform="matrix(1.457813,0,0,1.457813,-6.7365036,11.84383)"
       id="text877"
       style="font-style:normal;font-variant:normal;font-weight:normal;font-stretch:normal;font-size:6.29788446px;line-height:1.5;font-family:monospace;-inkscape-font-specification:monospace;letter-spacing:0px;word-spacing:0px;fill:#000000;fill-opacity:1;stroke:none;stroke-width:1.57447112"
       aria-label="– совсем не согласен 
– не согласен
– нейтрально 
– согласен
– полностью согласен
">
      <path
         inkscape:connector-curvature="0"
         id="path965"
         style="font-style:normal;font-variant:normal;font-weight:normal;font-stretch:normal;font-size:20.99294662px;line-height:2;font-family:Roboto;-inkscape-font-specification:Roboto;stroke-width:1.57447112"
         d="M 70.517773,13.812015 H 60.24681 v -1.54782 h 10.270963 z" />
      <path
         inkscape:connector-curvature="0"
         id="path967"
         style="font-style:normal;font-variant:normal;font-weight:normal;font-stretch:normal;font-size:20.99294662px;line-height:2;font-family:Roboto;-inkscape-font-specification:Roboto;stroke-width:1.57447112"
         d="m 83.453857,19.142255 q 1.014795,0 1.77333,-0.615028 0.758534,-0.615028 0.840537,-1.537569 h 1.793831 q -0.05125,0.953293 -0.656029,1.814332 -0.604778,0.861038 -1.619573,1.373562 -1.004546,0.512523 -2.132096,0.512523 -2.265353,0 -3.608163,-1.506818 -1.33256,-1.517069 -1.33256,-4.141187 v -0.317764 q 0,-1.619573 0.594527,-2.88038 0.594526,-1.260807 1.701576,-1.9578385 1.117301,-0.6970314 2.634369,-0.6970314 1.865584,0 3.09564,1.1172999 1.240306,1.117301 1.322309,2.900881 h -1.793831 q -0.082,-1.076298 -0.820037,-1.763079 -0.727782,-0.697032 -1.804081,-0.697032 -1.445315,0 -2.244851,1.045547 -0.789286,1.035297 -0.789286,3.003386 v 0.358766 q 0,1.916837 0.789286,2.952133 0.789285,1.035297 2.255102,1.035297 z" />
      <path
         inkscape:connector-curvature="0"
         id="path969"
         style="font-style:normal;font-variant:normal;font-weight:normal;font-stretch:normal;font-size:20.99294662px;line-height:2;font-family:Roboto;-inkscape-font-specification:Roboto;stroke-width:1.57447112"
         d="m 89.491378,14.837061 q 0,-1.629824 0.635529,-2.931632 0.645779,-1.301809 1.78358,-2.009091 1.148052,-0.7072819 2.613868,-0.7072819 2.265352,0 3.659415,1.5683209 1.404313,1.568321 1.404313,4.171938 v 0.133256 q 0,1.619573 -0.625278,2.911131 -0.615027,1.281308 -1.77333,1.99884 -1.148051,0.717533 -2.644619,0.717533 -2.255102,0 -3.659415,-1.568321 -1.394063,-1.568321 -1.394063,-4.151437 z m 1.906586,0.22551 q 0,1.845083 0.850789,2.962384 0.861038,1.1173 2.296103,1.1173 1.445315,0 2.296104,-1.127551 0.850788,-1.137801 0.850788,-3.177643 0,-1.824582 -0.871289,-2.952133 -0.861039,-1.137802 -2.296104,-1.137802 -1.404313,0 -2.265352,1.117301 -0.861039,1.1173 -0.861039,3.198144 z" />
      <path
         inkscape:connector-curvature="0"
         id="path971"
         style="font-style:normal;font-variant:normal;font-weight:normal;font-stretch:normal;font-size:20.99294662px;line-height:2;font-family:Roboto;-inkscape-font-specification:Roboto;stroke-width:1.57447112"
         d="M 102.14045,20.485065 V 9.3940653 h 4.3257 q 2.2141,0 3.3929,0.7790347 1.18905,0.768785 1.18905,2.265353 0,0.768784 -0.46127,1.394062 -0.46127,0.615028 -1.36331,0.943043 1.00455,0.235761 1.60932,0.922542 0.61503,0.686781 0.61503,1.640074 0,1.527318 -1.12755,2.337105 -1.1173,0.809786 -3.16739,0.809786 z m 1.89634,-4.868969 v 3.341651 h 3.13664 q 1.18905,0 1.77333,-0.44077 0.59452,-0.44077 0.59452,-1.240306 0,-1.660575 -2.43961,-1.660575 z m 0,-1.517069 h 2.44986 q 2.66512,0 2.66512,-1.55807 0,-1.55807 -2.52162,-1.609322 h -2.59336 z" />
      <path
         inkscape:connector-curvature="0"
         id="path973"
         style="font-style:normal;font-variant:normal;font-weight:normal;font-stretch:normal;font-size:20.99294662px;line-height:2;font-family:Roboto;-inkscape-font-specification:Roboto;stroke-width:1.57447112"
         d="m 118.42844,19.142255 q 1.01479,0 1.77333,-0.615028 0.75853,-0.615028 0.84053,-1.537569 h 1.79383 q -0.0512,0.953293 -0.65603,1.814332 -0.60477,0.861038 -1.61957,1.373562 -1.00454,0.512523 -2.13209,0.512523 -2.26536,0 -3.60817,-1.506818 -1.33256,-1.517069 -1.33256,-4.141187 v -0.317764 q 0,-1.619573 0.59453,-2.88038 0.59453,-1.260807 1.70158,-1.9578385 1.1173,-0.6970314 2.63436,-0.6970314 1.86559,0 3.09564,1.1172999 1.24031,1.117301 1.32231,2.900881 h -1.79383 q -0.082,-1.076298 -0.82003,-1.763079 -0.72779,-0.697032 -1.80409,-0.697032 -1.44531,0 -2.24485,1.045547 -0.78928,1.035297 -0.78928,3.003386 v 0.358766 q 0,1.916837 0.78928,2.952133 0.78929,1.035297 2.25511,1.035297 z" />
      <path
         inkscape:connector-curvature="0"
         id="path975"
         style="font-style:normal;font-variant:normal;font-weight:normal;font-stretch:normal;font-size:20.99294662px;line-height:2;font-family:Roboto;-inkscape-font-specification:Roboto;stroke-width:1.57447112"
         d="m 129.57069,20.690075 q -2.2551,0 -3.66967,-1.476067 -1.41456,-1.486317 -1.41456,-3.966929 v -0.348515 q 0,-1.650325 0.62528,-2.941883 0.63552,-1.301809 1.76308,-2.0295916 1.1378,-0.7380333 2.46011,-0.7380333 2.16284,0 3.36215,1.4248139 1.1993,1.424815 1.1993,4.079684 v 0.789286 h -7.51359 q 0.041,1.640074 0.9533,2.65487 0.92254,1.004545 2.3371,1.004545 1.00455,0 1.70158,-0.410019 0.69703,-0.410018 1.2198,-1.086549 l 1.15831,0.902041 q -1.39407,2.142347 -4.18219,2.142347 z m -0.23576,-9.942949 q -1.14806,0 -1.92709,0.840538 -0.77904,0.830288 -0.96354,2.337106 h 5.55575 v -0.143507 q -0.082,-1.445315 -0.77904,-2.234601 -0.69703,-0.799536 -1.88608,-0.799536 z" />
      <path
         inkscape:connector-curvature="0"
         id="path977"
         style="font-style:normal;font-variant:normal;font-weight:normal;font-stretch:normal;font-size:20.99294662px;line-height:2;font-family:Roboto;-inkscape-font-specification:Roboto;stroke-width:1.57447112"
         d="m 142.46577,17.973702 3.77217,-8.5796367 h 2.36786 V 20.485065 h -1.89634 v -8.067113 l -3.58766,8.067113 h -1.31206 l -3.65941,-8.241371 v 8.241371 h -1.89634 V 9.3940653 h 2.46011 z" />
      <path
         inkscape:connector-curvature="0"
         id="path979"
         style="font-style:normal;font-variant:normal;font-weight:normal;font-stretch:normal;font-size:20.99294662px;line-height:2;font-family:Roboto;-inkscape-font-specification:Roboto;stroke-width:1.57447112"
         d="m 165.92908,20.485065 h -1.89634 v -4.735713 h -5.09448 v 4.735713 h -1.90659 V 9.3940653 h 1.90659 v 4.8074667 h 5.09448 V 9.3940653 h 1.89634 z" />
      <path
         inkscape:connector-curvature="0"
         id="path981"
         style="font-style:normal;font-variant:normal;font-weight:normal;font-stretch:normal;font-size:20.99294662px;line-height:2;font-family:Roboto;-inkscape-font-specification:Roboto;stroke-width:1.57447112"
         d="m 173.56567,20.690075 q -2.2551,0 -3.66967,-1.476067 -1.41456,-1.486317 -1.41456,-3.966929 v -0.348515 q 0,-1.650325 0.62528,-2.941883 0.63552,-1.301809 1.76308,-2.0295916 1.1378,-0.7380333 2.46011,-0.7380333 2.16284,0 3.36215,1.4248139 1.1993,1.424815 1.1993,4.079684 v 0.789286 h -7.51359 q 0.041,1.640074 0.9533,2.65487 0.92254,1.004545 2.3371,1.004545 1.00455,0 1.70158,-0.410019 0.69703,-0.410018 1.2198,-1.086549 l 1.15831,0.902041 q -1.39407,2.142347 -4.18219,2.142347 z m -0.23576,-9.942949 q -1.14806,0 -1.92709,0.840538 -0.77904,0.830288 -0.96354,2.337106 h 5.55575 v -0.143507 q -0.082,-1.445315 -0.77904,-2.234601 -0.69703,-0.799536 -1.88608,-0.799536 z" />
      <path
         inkscape:connector-curvature="0"
         id="path983"
         style="font-style:normal;font-variant:normal;font-weight:normal;font-stretch:normal;font-size:20.99294662px;line-height:2;font-family:Roboto;-inkscape-font-specification:Roboto;stroke-width:1.57447112"
         d="m 189.73065,19.142255 q 1.0148,0 1.77333,-0.615028 0.75854,-0.615028 0.84054,-1.537569 h 1.79383 q -0.0513,0.953293 -0.65603,1.814332 -0.60478,0.861038 -1.61957,1.373562 -1.00455,0.512523 -2.1321,0.512523 -2.26535,0 -3.60816,-1.506818 -1.33256,-1.517069 -1.33256,-4.141187 v -0.317764 q 0,-1.619573 0.59453,-2.88038 0.59452,-1.260807 1.70157,-1.9578385 1.1173,-0.6970314 2.63437,-0.6970314 1.86558,0 3.09564,1.1172999 1.24031,1.117301 1.32231,2.900881 h -1.79383 q -0.082,-1.076298 -0.82004,-1.763079 -0.72778,-0.697032 -1.80408,-0.697032 -1.44531,0 -2.24485,1.045547 -0.78929,1.035297 -0.78929,3.003386 v 0.358766 q 0,1.916837 0.78929,2.952133 0.78928,1.035297 2.2551,1.035297 z" />
      <path
         inkscape:connector-curvature="0"
         id="path985"
         style="font-style:normal;font-variant:normal;font-weight:normal;font-stretch:normal;font-size:20.99294662px;line-height:2;font-family:Roboto;-inkscape-font-specification:Roboto;stroke-width:1.57447112"
         d="m 195.76817,14.837061 q 0,-1.629824 0.63553,-2.931632 0.64578,-1.301809 1.78358,-2.009091 1.14805,-0.7072819 2.61387,-0.7072819 2.26535,0 3.65941,1.5683209 1.40432,1.568321 1.40432,4.171938 v 0.133256 q 0,1.619573 -0.62528,2.911131 -0.61503,1.281308 -1.77333,1.99884 -1.14805,0.717533 -2.64462,0.717533 -2.2551,0 -3.65941,-1.568321 -1.39407,-1.568321 -1.39407,-4.151437 z m 1.90659,0.22551 q 0,1.845083 0.85079,2.962384 0.86104,1.1173 2.2961,1.1173 1.44532,0 2.2961,-1.127551 0.85079,-1.137801 0.85079,-3.177643 0,-1.824582 -0.87129,-2.952133 -0.86104,-1.137802 -2.2961,-1.137802 -1.40431,0 -2.26535,1.117301 -0.86104,1.1173 -0.86104,3.198144 z" />
      <path
         inkscape:connector-curvature="0"
         id="path987"
         style="font-style:normal;font-variant:normal;font-weight:normal;font-stretch:normal;font-size:20.99294662px;line-height:2;font-family:Roboto;-inkscape-font-specification:Roboto;stroke-width:1.57447112"
         d="m 215.40805,10.962386 h -5.11498 v 9.522679 h -1.90658 V 9.3940653 h 7.02156 z" />
      <path
         inkscape:connector-curvature="0"
         id="path989"
         style="font-style:normal;font-variant:normal;font-weight:normal;font-stretch:normal;font-size:20.99294662px;line-height:2;font-family:Roboto;-inkscape-font-specification:Roboto;stroke-width:1.57447112"
         d="M 225.74052,9.3940653 V 20.485065 h -1.90659 v -9.522679 h -3.77217 l -0.22551,4.151437 q -0.1845,2.859879 -0.96354,4.089935 -0.76878,1.230055 -2.44986,1.281307 h -0.75853 V 18.81424 l 0.54327,-0.041 q 0.92254,-0.102504 1.32231,-1.066048 0.39977,-0.963543 0.51252,-3.567161 l 0.20501,-4.7459637 z" />
      <path
         inkscape:connector-curvature="0"
         id="path991"
         style="font-style:normal;font-variant:normal;font-weight:normal;font-stretch:normal;font-size:20.99294662px;line-height:2;font-family:Roboto;-inkscape-font-specification:Roboto;stroke-width:1.57447112"
         d="m 235.63222,20.485065 q -0.16401,-0.328014 -0.26651,-1.168552 -1.32231,1.373562 -3.15715,1.373562 -1.64007,0 -2.69587,-0.922542 -1.04554,-0.932792 -1.04554,-2.357606 0,-1.732328 1.31206,-2.685621 1.32231,-0.963544 3.71066,-0.963544 h 1.84509 v -0.871289 q 0,-0.994295 -0.59453,-1.578571 -0.59453,-0.594527 -1.75283,-0.594527 -1.0148,0 -1.70158,0.512523 -0.68678,0.512523 -0.68678,1.240306 h -1.90658 q 0,-0.830287 0.58427,-1.599072 0.59453,-0.779035 1.59907,-1.2300556 1.0148,-0.4510203 2.22436,-0.4510203 1.91683,0 3.00338,0.9635439 1.08655,0.953293 1.12755,2.634368 v 5.104731 q 0,1.527318 0.38952,2.429359 v 0.164007 z m -3.14689,-1.445315 q 0.89179,0 1.69132,-0.461271 0.79954,-0.46127 1.15831,-1.199304 v -2.275602 h -1.48632 q -3.48516,0 -3.48516,2.039842 0,0.89179 0.59453,1.394063 0.59453,0.502272 1.52732,0.502272 z" />
      <path
         inkscape:connector-curvature="0"
         id="path993"
         style="font-style:normal;font-variant:normal;font-weight:normal;font-stretch:normal;font-size:20.99294662px;line-height:2;font-family:Roboto;-inkscape-font-specification:Roboto;stroke-width:1.57447112"
         d="m 244.67313,19.142255 q 1.01479,0 1.77333,-0.615028 0.75853,-0.615028 0.84053,-1.537569 h 1.79383 q -0.0512,0.953293 -0.65603,1.814332 -0.60477,0.861038 -1.61957,1.373562 -1.00454,0.512523 -2.13209,0.512523 -2.26536,0 -3.60817,-1.506818 -1.33256,-1.517069 -1.33256,-4.141187 v -0.317764 q 0,-1.619573 0.59453,-2.88038 0.59453,-1.260807 1.70158,-1.9578385 1.1173,-0.6970314 2.63436,-0.6970314 1.86559,0 3.09564,1.1172999 1.24031,1.117301 1.32231,2.900881 h -1.79383 q -0.082,-1.076298 -0.82003,-1.763079 -0.72779,-0.697032 -1.80409,-0.697032 -1.44531,0 -2.24485,1.045547 -0.78928,1.035297 -0.78928,3.003386 v 0.358766 q 0,1.916837 0.78928,2.952133 0.78929,1.035297 2.25511,1.035297 z" />
      <path
         inkscape:connector-curvature="0"
         id="path995"
         style="font-style:normal;font-variant:normal;font-weight:normal;font-stretch:normal;font-size:20.99294662px;line-height:2;font-family:Roboto;-inkscape-font-specification:Roboto;stroke-width:1.57447112"
         d="m 255.81538,20.690075 q -2.2551,0 -3.66967,-1.476067 -1.41456,-1.486317 -1.41456,-3.966929 v -0.348515 q 0,-1.650325 0.62528,-2.941883 0.63552,-1.301809 1.76308,-2.0295916 1.1378,-0.7380333 2.46011,-0.7380333 2.16284,0 3.36215,1.4248139 1.1993,1.424815 1.1993,4.079684 v 0.789286 h -7.51359 q 0.041,1.640074 0.9533,2.65487 0.92254,1.004545 2.3371,1.004545 1.00455,0 1.70158,-0.410019 0.69703,-0.410018 1.2198,-1.086549 l 1.15831,0.902041 q -1.39407,2.142347 -4.18219,2.142347 z m -0.23576,-9.942949 q -1.14806,0 -1.92709,0.840538 -0.77904,0.830288 -0.96354,2.337106 h 5.55575 v -0.143507 q -0.082,-1.445315 -0.77904,-2.234601 -0.69703,-0.799536 -1.88608,-0.799536 z" />
      <path
         inkscape:connector-curvature="0"
         id="path997"
         style="font-style:normal;font-variant:normal;font-weight:normal;font-stretch:normal;font-size:20.99294662px;line-height:2;font-family:Roboto;-inkscape-font-specification:Roboto;stroke-width:1.57447112"
         d="m 271.38584,20.485065 h -1.89634 v -4.735713 h -5.09448 v 4.735713 h -1.90658 V 9.3940653 h 1.90658 v 4.8074667 h 5.09448 V 9.3940653 h 1.89634 z" />
      <path
         inkscape:connector-curvature="0"
         id="path999"
         style="font-style:normal;font-variant:normal;font-weight:normal;font-stretch:normal;font-size:20.99294662px;line-height:2;font-family:Roboto;-inkscape-font-specification:Roboto;stroke-width:1.57447112"
         d="M 70.517773,55.797908 H 60.24681 v -1.54782 h 10.270963 z" />
      <path
         inkscape:connector-curvature="0"
         id="path1001"
         style="font-style:normal;font-variant:normal;font-weight:normal;font-stretch:normal;font-size:20.99294662px;line-height:2;font-family:Roboto;-inkscape-font-specification:Roboto;stroke-width:1.57447112"
         d="m 88.066565,62.470959 h -1.896336 v -4.735714 h -5.09448 v 4.735714 h -1.906586 v -11.091 h 1.906586 v 4.807466 h 5.09448 v -4.807466 h 1.896336 z" />
      <path
         inkscape:connector-curvature="0"
         id="path1003"
         style="font-style:normal;font-variant:normal;font-weight:normal;font-stretch:normal;font-size:20.99294662px;line-height:2;font-family:Roboto;-inkscape-font-specification:Roboto;stroke-width:1.57447112"
         d="m 95.703158,62.675968 q -2.255101,0 -3.669665,-1.476067 -1.414564,-1.486317 -1.414564,-3.966928 v -0.348516 q 0,-1.650325 0.625278,-2.941883 0.635529,-1.301809 1.76308,-2.029591 1.137801,-0.738034 2.460111,-0.738034 2.162847,0 3.362151,1.424815 1.199301,1.424814 1.199301,4.079684 v 0.789285 h -7.513585 q 0.041,1.640074 0.953293,2.65487 0.922541,1.004545 2.337105,1.004545 1.004545,0 1.701577,-0.410018 0.697031,-0.410019 1.219805,-1.086549 l 1.158302,0.90204 q -1.394063,2.142347 -4.182189,2.142347 z m -0.23576,-9.942948 q -1.148052,0 -1.927087,0.840538 -0.779035,0.830287 -0.963544,2.337105 h 5.555751 v -0.143507 q -0.082,-1.445315 -0.779035,-2.2346 -0.697032,-0.799536 -1.886085,-0.799536 z" />
      <path
         inkscape:connector-curvature="0"
         id="path1005"
         style="font-style:normal;font-variant:normal;font-weight:normal;font-stretch:normal;font-size:20.99294662px;line-height:2;font-family:Roboto;-inkscape-font-specification:Roboto;stroke-width:1.57447112"
         d="m 111.86814,61.128148 q 1.01479,0 1.77333,-0.615028 0.75853,-0.615027 0.84053,-1.537569 h 1.79384 q -0.0513,0.953293 -0.65603,1.814332 -0.60478,0.861039 -1.61958,1.373562 -1.00454,0.512523 -2.13209,0.512523 -2.26536,0 -3.60817,-1.506818 -1.33256,-1.517068 -1.33256,-4.141187 v -0.317764 q 0,-1.619573 0.59453,-2.88038 0.59453,-1.260807 1.70158,-1.957838 1.1173,-0.697032 2.63437,-0.697032 1.86558,0 3.09564,1.117301 1.2403,1.1173 1.32231,2.900881 H 114.482 q -0.082,-1.076299 -0.82003,-1.76308 -0.72779,-0.697031 -1.80408,-0.697031 -1.44532,0 -2.24486,1.045547 -0.78928,1.035296 -0.78928,3.003385 v 0.358766 q 0,1.916837 0.78928,2.952133 0.78929,1.035297 2.25511,1.035297 z" />
      <path
         inkscape:connector-curvature="0"
         id="path1007"
         style="font-style:normal;font-variant:normal;font-weight:normal;font-stretch:normal;font-size:20.99294662px;line-height:2;font-family:Roboto;-inkscape-font-specification:Roboto;stroke-width:1.57447112"
         d="m 117.90566,56.822954 q 0,-1.629823 0.63553,-2.931632 0.64578,-1.301809 1.78358,-2.009091 1.14805,-0.707282 2.61387,-0.707282 2.26535,0 3.65941,1.568321 1.40432,1.568321 1.40432,4.171938 v 0.133256 q 0,1.619573 -0.62528,2.911131 -0.61503,1.281308 -1.77333,1.998841 -1.14805,0.717532 -2.64462,0.717532 -2.2551,0 -3.65942,-1.568321 -1.39406,-1.56832 -1.39406,-4.151437 z m 1.90659,0.22551 q 0,1.845083 0.85079,2.962384 0.86104,1.1173 2.2961,1.1173 1.44531,0 2.2961,-1.127551 0.85079,-1.137801 0.85079,-3.177643 0,-1.824582 -0.87129,-2.952133 -0.86104,-1.137801 -2.2961,-1.137801 -1.40431,0 -2.26535,1.1173 -0.86104,1.1173 -0.86104,3.198144 z" />
      <path
         inkscape:connector-curvature="0"
         id="path1009"
         style="font-style:normal;font-variant:normal;font-weight:normal;font-stretch:normal;font-size:20.99294662px;line-height:2;font-family:Roboto;-inkscape-font-specification:Roboto;stroke-width:1.57447112"
         d="m 137.54555,52.948279 h -5.11498 v 9.52268 h -1.90659 v -11.091 h 7.02157 z" />
      <path
         inkscape:connector-curvature="0"
         id="path1011"
         style="font-style:normal;font-variant:normal;font-weight:normal;font-stretch:normal;font-size:20.99294662px;line-height:2;font-family:Roboto;-inkscape-font-specification:Roboto;stroke-width:1.57447112"
         d="m 147.87801,51.379959 v 11.091 h -1.90659 v -9.52268 h -3.77217 l -0.22551,4.151438 q -0.18451,2.859878 -0.96354,4.089934 -0.76879,1.230055 -2.44986,1.281308 h -0.75854 v -1.670826 l 0.54328,-0.041 q 0.92254,-0.102505 1.32231,-1.066049 0.39977,-0.963543 0.51252,-3.56716 l 0.20501,-4.745964 z" />
      <path
         inkscape:connector-curvature="0"
         id="path1013"
         style="font-style:normal;font-variant:normal;font-weight:normal;font-stretch:normal;font-size:20.99294662px;line-height:2;font-family:Roboto;-inkscape-font-specification:Roboto;stroke-width:1.57447112"
         d="m 157.76971,62.470959 q -0.16401,-0.328015 -0.26651,-1.168553 -1.32231,1.373562 -3.15715,1.373562 -1.64007,0 -2.69587,-0.922542 -1.04554,-0.932792 -1.04554,-2.357606 0,-1.732328 1.31205,-2.685621 1.32231,-0.963544 3.71067,-0.963544 h 1.84509 v -0.871289 q 0,-0.994295 -0.59453,-1.578571 -0.59453,-0.594527 -1.75283,-0.594527 -1.0148,0 -1.70158,0.512523 -0.68678,0.512523 -0.68678,1.240306 h -1.90658 q 0,-0.830287 0.58427,-1.599072 0.59453,-0.779035 1.59907,-1.230055 1.0148,-0.451021 2.22435,-0.451021 1.91684,0 3.00339,0.963544 1.08655,0.953293 1.12755,2.634369 v 5.10473 q 0,1.527319 0.38952,2.429359 v 0.164008 z m -3.14689,-1.445315 q 0.89179,0 1.69132,-0.461271 0.79954,-0.461271 1.15831,-1.199304 v -2.275603 h -1.48632 q -3.48516,0 -3.48516,2.039842 0,0.89179 0.59453,1.394063 0.59452,0.502273 1.52732,0.502273 z" />
      <path
         inkscape:connector-curvature="0"
         id="path1015"
         style="font-style:normal;font-variant:normal;font-weight:normal;font-stretch:normal;font-size:20.99294662px;line-height:2;font-family:Roboto;-inkscape-font-specification:Roboto;stroke-width:1.57447112"
         d="m 166.81061,61.128148 q 1.0148,0 1.77333,-0.615028 0.75854,-0.615027 0.84054,-1.537569 h 1.79383 q -0.0513,0.953293 -0.65603,1.814332 -0.60477,0.861039 -1.61957,1.373562 -1.00454,0.512523 -2.1321,0.512523 -2.26535,0 -3.60816,-1.506818 -1.33256,-1.517068 -1.33256,-4.141187 v -0.317764 q 0,-1.619573 0.59453,-2.88038 0.59453,-1.260807 1.70158,-1.957838 1.1173,-0.697032 2.63436,-0.697032 1.86559,0 3.09564,1.117301 1.24031,1.1173 1.32231,2.900881 h -1.79383 q -0.082,-1.076299 -0.82003,-1.76308 -0.72779,-0.697031 -1.80409,-0.697031 -1.44531,0 -2.24485,1.045547 -0.78928,1.035296 -0.78928,3.003385 v 0.358766 q 0,1.916837 0.78928,2.952133 0.78929,1.035297 2.2551,1.035297 z" />
      <path
         inkscape:connector-curvature="0"
         id="path1017"
         style="font-style:normal;font-variant:normal;font-weight:normal;font-stretch:normal;font-size:20.99294662px;line-height:2;font-family:Roboto;-inkscape-font-specification:Roboto;stroke-width:1.57447112"
         d="m 177.95287,62.675968 q -2.25511,0 -3.66967,-1.476067 -1.41456,-1.486317 -1.41456,-3.966928 v -0.348516 q 0,-1.650325 0.62528,-2.941883 0.63552,-1.301809 1.76307,-2.029591 1.13781,-0.738034 2.46012,-0.738034 2.16284,0 3.36215,1.424815 1.1993,1.424814 1.1993,4.079684 v 0.789285 h -7.51359 q 0.041,1.640074 0.9533,2.65487 0.92254,1.004545 2.3371,1.004545 1.00455,0 1.70158,-0.410018 0.69703,-0.410019 1.2198,-1.086549 l 1.15831,0.90204 q -1.39407,2.142347 -4.18219,2.142347 z m -0.23576,-9.942948 q -1.14806,0 -1.92709,0.840538 -0.77904,0.830287 -0.96354,2.337105 h 5.55575 v -0.143507 q -0.082,-1.445315 -0.77904,-2.2346 -0.69703,-0.799536 -1.88608,-0.799536 z" />
      <path
         inkscape:connector-curvature="0"
         id="path1019"
         style="font-style:normal;font-variant:normal;font-weight:normal;font-stretch:normal;font-size:20.99294662px;line-height:2;font-family:Roboto;-inkscape-font-specification:Roboto;stroke-width:1.57447112"
         d="m 193.52332,62.470959 h -1.89633 v -4.735714 h -5.09448 v 4.735714 h -1.90659 v -11.091 h 1.90659 v 4.807466 h 5.09448 v -4.807466 h 1.89633 z" />
      <path
         inkscape:connector-curvature="0"
         id="path1021"
         style="font-style:normal;font-variant:normal;font-weight:normal;font-stretch:normal;font-size:20.99294662px;line-height:2;font-family:Roboto;-inkscape-font-specification:Roboto;stroke-width:1.57447112"
         d="M 70.517773,97.783801 H 60.24681 v -1.54782 h 10.270963 z" />
      <path
         inkscape:connector-curvature="0"
         id="path1023"
         style="font-style:normal;font-variant:normal;font-weight:normal;font-stretch:normal;font-size:20.99294662px;line-height:2;font-family:Roboto;-inkscape-font-specification:Roboto;stroke-width:1.57447112"
         d="m 88.066565,104.45685 h -1.896336 v -4.735712 h -5.09448 v 4.735712 H 79.169163 V 93.365852 h 1.906586 v 4.807467 h 5.09448 v -4.807467 h 1.896336 z" />
      <path
         inkscape:connector-curvature="0"
         id="path1025"
         style="font-style:normal;font-variant:normal;font-weight:normal;font-stretch:normal;font-size:20.99294662px;line-height:2;font-family:Roboto;-inkscape-font-specification:Roboto;stroke-width:1.57447112"
         d="m 95.703158,104.66186 q -2.255101,0 -3.669665,-1.47607 -1.414564,-1.48631 -1.414564,-3.966924 V 98.87035 q 0,-1.650324 0.625278,-2.941883 0.635529,-1.301808 1.76308,-2.029591 1.137801,-0.738033 2.460111,-0.738033 2.162847,0 3.362151,1.424814 1.199301,1.424814 1.199301,4.079684 v 0.789285 h -7.513585 q 0.041,1.640074 0.953293,2.654874 0.922541,1.00454 2.337105,1.00454 1.004545,0 1.701577,-0.41002 0.697031,-0.41002 1.219805,-1.08655 l 1.158302,0.90204 q -1.394063,2.14235 -4.182189,2.14235 z m -0.23576,-9.942947 q -1.148052,0 -1.927087,0.840538 -0.779035,0.830287 -0.963544,2.337105 h 5.555751 V 97.75305 q -0.082,-1.445316 -0.779035,-2.234601 -0.697032,-0.799536 -1.886085,-0.799536 z" />
      <path
         inkscape:connector-curvature="0"
         id="path1027"
         style="font-style:normal;font-variant:normal;font-weight:normal;font-stretch:normal;font-size:20.99294662px;line-height:2;font-family:Roboto;-inkscape-font-specification:Roboto;stroke-width:1.57447112"
         d="m 109.38753,93.365852 h 1.89633 v 11.090998 h -1.89633 v -8.087613 l -5.11498,8.087613 h -1.89634 V 93.365852 h 1.89634 v 8.097868 z m 0.51252,-4.038682 q 0,1.240306 -0.85079,1.99884 -0.84054,0.748284 -2.2141,0.748284 -1.37356,0 -2.22435,-0.758535 -0.85079,-0.758534 -0.85079,-1.988589 h 1.54782 q 0,0.717532 0.38952,1.127551 0.38952,0.399768 1.1378,0.399768 0.71753,0 1.1173,-0.399768 0.41002,-0.399768 0.41002,-1.127551 z" />
      <path
         inkscape:connector-curvature="0"
         id="path1029"
         style="font-style:normal;font-variant:normal;font-weight:normal;font-stretch:normal;font-size:20.99294662px;line-height:2;font-family:Roboto;-inkscape-font-specification:Roboto;stroke-width:1.57447112"
         d="m 122.59012,94.903421 h -3.72092 v 9.553429 h -1.89633 v -9.553429 h -3.64917 v -1.537569 h 9.26642 z" />
      <path
         inkscape:connector-curvature="0"
         id="path1031"
         style="font-style:normal;font-variant:normal;font-weight:normal;font-stretch:normal;font-size:20.99294662px;line-height:2;font-family:Roboto;-inkscape-font-specification:Roboto;stroke-width:1.57447112"
         d="m 133.80412,99.034357 q 0,2.531863 -1.1583,4.079683 -1.1583,1.54782 -3.13664,1.54782 -2.01934,0 -3.17764,-1.28131 v 5.34049 H 124.4352 V 93.365852 h 1.73233 l 0.0923,1.230055 q 1.15831,-1.435064 3.21865,-1.435064 1.99884,0 3.15714,1.506818 1.16855,1.506817 1.16855,4.192439 z m -1.89633,-0.215259 q 0,-1.875835 -0.79954,-2.962384 -0.79953,-1.086549 -2.1936,-1.086549 -1.72207,0 -2.58311,1.527319 v 5.299486 q 0.85079,1.51707 2.60361,1.51707 1.36332,0 2.16285,-1.0763 0.80979,-1.08655 0.80979,-3.218642 z" />
      <path
         inkscape:connector-curvature="0"
         id="path1033"
         style="font-style:normal;font-variant:normal;font-weight:normal;font-stretch:normal;font-size:20.99294662px;line-height:2;font-family:Roboto;-inkscape-font-specification:Roboto;stroke-width:1.57447112"
         d="m 143.05004,104.45685 q -0.164,-0.32801 -0.26651,-1.16855 -1.32231,1.37356 -3.15714,1.37356 -1.64008,0 -2.69587,-0.92254 -1.04555,-0.93279 -1.04555,-2.35761 0,-1.732325 1.31206,-2.685618 1.32231,-0.963543 3.71067,-0.963543 h 1.84508 v -0.87129 q 0,-0.994294 -0.59453,-1.578571 -0.59452,-0.594527 -1.75283,-0.594527 -1.01479,0 -1.70157,0.512524 -0.68678,0.512523 -0.68678,1.240306 h -1.90659 q 0,-0.830288 0.58428,-1.599073 0.59452,-0.779035 1.59907,-1.230055 1.01479,-0.45102 2.22435,-0.45102 1.91684,0 3.00338,0.963543 1.08655,0.953293 1.12756,2.634369 v 5.104735 q 0,1.52731 0.38951,2.42935 v 0.16401 z m -3.14689,-1.44531 q 0.89179,0 1.69133,-0.46127 0.79953,-0.46127 1.1583,-1.19931 v -2.275601 h -1.48632 q -3.48515,0 -3.48515,2.039841 0,0.89179 0.59452,1.39406 0.59453,0.50228 1.52732,0.50228 z" />
      <path
         inkscape:connector-curvature="0"
         id="path1035"
         style="font-style:normal;font-variant:normal;font-weight:normal;font-stretch:normal;font-size:20.99294662px;line-height:2;font-family:Roboto;-inkscape-font-specification:Roboto;stroke-width:1.57447112"
         d="m 156.73441,93.365852 v 11.090998 h -1.90659 v -9.522677 h -3.77217 l -0.22551,4.151437 q -0.18451,2.85988 -0.96354,4.08993 -0.76879,1.23006 -2.44986,1.28131 h -0.75854 v -1.67082 l 0.54328,-0.041 q 0.92254,-0.1025 1.32231,-1.06604 0.39977,-0.96355 0.51252,-3.567164 l 0.20501,-4.745964 z" />
      <path
         inkscape:connector-curvature="0"
         id="path1037"
         style="font-style:normal;font-variant:normal;font-weight:normal;font-stretch:normal;font-size:20.99294662px;line-height:2;font-family:Roboto;-inkscape-font-specification:Roboto;stroke-width:1.57447112"
         d="m 161.84939,97.189274 h 2.88038 q 1.88609,0.0205 2.98289,0.984045 1.0968,0.963543 1.0968,2.613871 0,1.66057 -1.12755,2.66512 -1.12756,1.00454 -3.03414,1.00454 h -4.69471 V 93.365852 h 1.89633 z m 0,1.54782 v 4.171936 h 2.81888 q 1.06605,0 1.65032,-0.54327 0.58428,-0.55353 0.58428,-1.50682 0,-0.922542 -0.57403,-1.506818 -0.56377,-0.594527 -1.58882,-0.615028 z" />
      <path
         inkscape:connector-curvature="0"
         id="path1039"
         style="font-style:normal;font-variant:normal;font-weight:normal;font-stretch:normal;font-size:20.99294662px;line-height:2;font-family:Roboto;-inkscape-font-specification:Roboto;stroke-width:1.57447112"
         d="m 180.23872,104.45685 h -1.89633 v -4.735712 h -5.09448 v 4.735712 h -1.90659 V 93.365852 h 1.90659 v 4.807467 h 5.09448 v -4.807467 h 1.89633 z" />
      <path
         inkscape:connector-curvature="0"
         id="path1041"
         style="font-style:normal;font-variant:normal;font-weight:normal;font-stretch:normal;font-size:20.99294662px;line-height:2;font-family:Roboto;-inkscape-font-specification:Roboto;stroke-width:1.57447112"
         d="m 182.77058,98.808847 q 0,-1.629823 0.63553,-2.931632 0.64578,-1.301809 1.78358,-2.009091 1.14805,-0.707281 2.61387,-0.707281 2.26535,0 3.65942,1.56832 1.40431,1.568321 1.40431,4.171938 v 0.133256 q 0,1.619573 -0.62528,2.911133 -0.61503,1.28131 -1.77333,1.99884 -1.14805,0.71753 -2.64462,0.71753 -2.2551,0 -3.65941,-1.56832 -1.39407,-1.56832 -1.39407,-4.151437 z m 1.90659,0.22551 q 0,1.845083 0.85079,2.962383 0.86104,1.1173 2.2961,1.1173 1.44532,0 2.2961,-1.12755 0.85079,-1.1378 0.85079,-3.177643 0,-1.824582 -0.87129,-2.952133 -0.86103,-1.137801 -2.2961,-1.137801 -1.40431,0 -2.26535,1.1173 -0.86104,1.117301 -0.86104,3.198144 z" />
      <path
         inkscape:connector-curvature="0"
         id="path1043"
         style="font-style:normal;font-variant:normal;font-weight:normal;font-stretch:normal;font-size:20.99294662px;line-height:2;font-family:Roboto;-inkscape-font-specification:Roboto;stroke-width:1.57447112"
         d="M 70.517773,139.76969 H 60.24681 v -1.54782 h 10.270963 z" />
      <path
         inkscape:connector-curvature="0"
         id="path1045"
         style="font-style:normal;font-variant:normal;font-weight:normal;font-stretch:normal;font-size:20.99294662px;line-height:2;font-family:Roboto;-inkscape-font-specification:Roboto;stroke-width:1.57447112"
         d="m 83.453857,145.09993 q 1.014795,0 1.77333,-0.61502 0.758534,-0.61503 0.840537,-1.53757 h 1.793831 q -0.05125,0.95329 -0.656029,1.81433 -0.604778,0.86104 -1.619573,1.37356 -1.004546,0.51252 -2.132096,0.51252 -2.265353,0 -3.608163,-1.50681 -1.33256,-1.51707 -1.33256,-4.14119 v -0.31776 q 0,-1.61958 0.594527,-2.88038 0.594526,-1.26081 1.701576,-1.95784 1.117301,-0.69703 2.634369,-0.69703 1.865584,0 3.09564,1.1173 1.240306,1.1173 1.322309,2.90088 h -1.793831 q -0.082,-1.0763 -0.820037,-1.76308 -0.727782,-0.69703 -1.804081,-0.69703 -1.445315,0 -2.244851,1.04554 -0.789286,1.0353 -0.789286,3.00339 v 0.35876 q 0,1.91684 0.789286,2.95214 0.789285,1.03529 2.255102,1.03529 z" />
      <path
         inkscape:connector-curvature="0"
         id="path1047"
         style="font-style:normal;font-variant:normal;font-weight:normal;font-stretch:normal;font-size:20.99294662px;line-height:2;font-family:Roboto;-inkscape-font-specification:Roboto;stroke-width:1.57447112"
         d="m 89.491378,140.79474 q 0,-1.62982 0.635529,-2.93163 0.645779,-1.30181 1.78358,-2.00909 1.148052,-0.70728 2.613868,-0.70728 2.265352,0 3.659415,1.56832 1.404313,1.56832 1.404313,4.17193 v 0.13326 q 0,1.61957 -0.625278,2.91113 -0.615027,1.28131 -1.77333,1.99884 -1.148051,0.71753 -2.644619,0.71753 -2.255102,0 -3.659415,-1.56832 -1.394063,-1.56832 -1.394063,-4.15143 z m 1.906586,0.22551 q 0,1.84508 0.850789,2.96238 0.861038,1.1173 2.296103,1.1173 1.445315,0 2.296104,-1.12755 0.850788,-1.1378 0.850788,-3.17764 0,-1.82458 -0.871289,-2.95213 -0.861039,-1.1378 -2.296104,-1.1378 -1.404313,0 -2.265352,1.1173 -0.861039,1.1173 -0.861039,3.19814 z" />
      <path
         inkscape:connector-curvature="0"
         id="path1049"
         style="font-style:normal;font-variant:normal;font-weight:normal;font-stretch:normal;font-size:20.99294662px;line-height:2;font-family:Roboto;-inkscape-font-specification:Roboto;stroke-width:1.57447112"
         d="m 109.13127,136.92007 h -5.11498 v 9.52268 h -1.90659 v -11.091 h 7.02157 z" />
      <path
         inkscape:connector-curvature="0"
         id="path1051"
         style="font-style:normal;font-variant:normal;font-weight:normal;font-stretch:normal;font-size:20.99294662px;line-height:2;font-family:Roboto;-inkscape-font-specification:Roboto;stroke-width:1.57447112"
         d="m 119.46373,135.35175 v 11.091 h -1.90659 v -9.52268 h -3.77217 l -0.22551,4.15143 q -0.18451,2.85988 -0.96354,4.08994 -0.76879,1.23005 -2.44986,1.28131 h -0.75854 v -1.67083 l 0.54328,-0.041 q 0.92254,-0.10251 1.32231,-1.06605 0.39977,-0.96354 0.51252,-3.56716 l 0.20501,-4.74596 z" />
      <path
         inkscape:connector-curvature="0"
         id="path1053"
         style="font-style:normal;font-variant:normal;font-weight:normal;font-stretch:normal;font-size:20.99294662px;line-height:2;font-family:Roboto;-inkscape-font-specification:Roboto;stroke-width:1.57447112"
         d="m 129.35542,146.44275 q -0.164,-0.32802 -0.26651,-1.16856 -1.32231,1.37356 -3.15714,1.37356 -1.64007,0 -2.69587,-0.92254 -1.04555,-0.93279 -1.04555,-2.3576 0,-1.73233 1.31206,-2.68562 1.32231,-0.96355 3.71067,-0.96355 h 1.84508 v -0.87129 q 0,-0.99429 -0.59453,-1.57857 -0.59452,-0.59453 -1.75282,-0.59453 -1.0148,0 -1.70158,0.51253 -0.68678,0.51252 -0.68678,1.2403 h -1.90659 q 0,-0.83028 0.58428,-1.59907 0.59453,-0.77903 1.59907,-1.23005 1.0148,-0.45102 2.22435,-0.45102 1.91684,0 3.00339,0.96354 1.08655,0.95329 1.12755,2.63437 v 5.10473 q 0,1.52732 0.38951,2.42936 v 0.16401 z m -3.14689,-1.44532 q 0.89179,0 1.69133,-0.46127 0.79954,-0.46127 1.1583,-1.1993 v -2.27561 h -1.48632 q -3.48515,0 -3.48515,2.03984 0,0.89179 0.59452,1.39407 0.59453,0.50227 1.52732,0.50227 z" />
      <path
         inkscape:connector-curvature="0"
         id="path1055"
         style="font-style:normal;font-variant:normal;font-weight:normal;font-stretch:normal;font-size:20.99294662px;line-height:2;font-family:Roboto;-inkscape-font-specification:Roboto;stroke-width:1.57447112"
         d="m 138.39633,145.09993 q 1.0148,0 1.77333,-0.61502 0.75854,-0.61503 0.84054,-1.53757 h 1.79383 q -0.0513,0.95329 -0.65603,1.81433 -0.60478,0.86104 -1.61957,1.37356 -1.00455,0.51252 -2.1321,0.51252 -2.26535,0 -3.60816,-1.50681 -1.33256,-1.51707 -1.33256,-4.14119 v -0.31776 q 0,-1.61958 0.59452,-2.88038 0.59453,-1.26081 1.70158,-1.95784 1.1173,-0.69703 2.63437,-0.69703 1.86558,0 3.09564,1.1173 1.24031,1.1173 1.32231,2.90088 h -1.79383 q -0.082,-1.0763 -0.82004,-1.76308 -0.72778,-0.69703 -1.80408,-0.69703 -1.44531,0 -2.24485,1.04554 -0.78929,1.0353 -0.78929,3.00339 v 0.35876 q 0,1.91684 0.78929,2.95214 0.78928,1.03529 2.2551,1.03529 z" />
      <path
         inkscape:connector-curvature="0"
         id="path1057"
         style="font-style:normal;font-variant:normal;font-weight:normal;font-stretch:normal;font-size:20.99294662px;line-height:2;font-family:Roboto;-inkscape-font-specification:Roboto;stroke-width:1.57447112"
         d="m 149.53859,146.64775 q -2.2551,0 -3.66967,-1.47606 -1.41456,-1.48632 -1.41456,-3.96693 v -0.34852 q 0,-1.65032 0.62528,-2.94188 0.63553,-1.30181 1.76308,-2.02959 1.1378,-0.73803 2.46011,-0.73803 2.16285,0 3.36215,1.42481 1.19931,1.42481 1.19931,4.07968 v 0.78929 h -7.51359 q 0.041,1.64007 0.95329,2.65487 0.92254,1.00454 2.3371,1.00454 1.00455,0 1.70158,-0.41001 0.69703,-0.41002 1.21981,-1.08655 l 1.1583,0.90204 q -1.39406,2.14234 -4.18219,2.14234 z m -0.23576,-9.94294 q -1.14805,0 -1.92709,0.84053 -0.77903,0.83029 -0.96354,2.33711 h 5.55575 v -0.14351 q -0.082,-1.44531 -0.77904,-2.2346 -0.69703,-0.79953 -1.88608,-0.79953 z" />
      <path
         inkscape:connector-curvature="0"
         id="path1059"
         style="font-style:normal;font-variant:normal;font-weight:normal;font-stretch:normal;font-size:20.99294662px;line-height:2;font-family:Roboto;-inkscape-font-specification:Roboto;stroke-width:1.57447112"
         d="m 165.10904,146.44275 h -1.89634 v -4.73572 h -5.09448 v 4.73572 h -1.90658 v -11.091 h 1.90658 v 4.80746 h 5.09448 v -4.80746 h 1.89634 z" />
      <path
         inkscape:connector-curvature="0"
         id="path1061"
         style="font-style:normal;font-variant:normal;font-weight:normal;font-stretch:normal;font-size:20.99294662px;line-height:2;font-family:Roboto;-inkscape-font-specification:Roboto;stroke-width:1.57447112"
         d="M 70.517773,181.75559 H 60.24681 v -1.54782 h 10.270963 z" />
      <path
         inkscape:connector-curvature="0"
         id="path1063"
         style="font-style:normal;font-variant:normal;font-weight:normal;font-stretch:normal;font-size:20.99294662px;line-height:2;font-family:Roboto;-inkscape-font-specification:Roboto;stroke-width:1.57447112"
         d="M 88.076815,188.42864 H 86.18048 v -9.52268 h -5.104731 v 9.52268 h -1.906586 v -11.091 h 8.907652 z" />
      <path
         inkscape:connector-curvature="0"
         id="path1065"
         style="font-style:normal;font-variant:normal;font-weight:normal;font-stretch:normal;font-size:20.99294662px;line-height:2;font-family:Roboto;-inkscape-font-specification:Roboto;stroke-width:1.57447112"
         d="m 90.63943,182.78063 q 0,-1.62982 0.635529,-2.93163 0.645779,-1.30181 1.78358,-2.00909 1.148052,-0.70728 2.613868,-0.70728 2.265352,0 3.659415,1.56832 1.404318,1.56832 1.404318,4.17194 v 0.13325 q 0,1.61958 -0.62528,2.91114 -0.61503,1.2813 -1.773332,1.99884 -1.148052,0.71753 -2.64462,0.71753 -2.255101,0 -3.659415,-1.56832 -1.394063,-1.56832 -1.394063,-4.15144 z m 1.906586,0.22551 q 0,1.84509 0.850789,2.96239 0.861039,1.1173 2.296103,1.1173 1.445315,0 2.296104,-1.12755 0.850788,-1.1378 0.850788,-3.17765 0,-1.82458 -0.871289,-2.95213 -0.861039,-1.1378 -2.296104,-1.1378 -1.404313,0 -2.265352,1.1173 -0.861039,1.1173 -0.861039,3.19814 z" />
      <path
         inkscape:connector-curvature="0"
         id="path1067"
         style="font-style:normal;font-variant:normal;font-weight:normal;font-stretch:normal;font-size:20.99294662px;line-height:2;font-family:Roboto;-inkscape-font-specification:Roboto;stroke-width:1.57447112"
         d="m 112.0424,177.33764 v 11.091 h -1.90659 v -9.52268 h -3.77217 l -0.22551,4.15144 q -0.18451,2.85988 -0.96354,4.08993 -0.76879,1.23006 -2.44986,1.28131 h -0.75854 v -1.67083 l 0.54328,-0.041 q 0.92254,-0.1025 1.32231,-1.06605 0.39976,-0.96354 0.51252,-3.56716 l 0.20501,-4.74596 z" />
      <path
         inkscape:connector-curvature="0"
         id="path1069"
         style="font-style:normal;font-variant:normal;font-weight:normal;font-stretch:normal;font-size:20.99294662px;line-height:2;font-family:Roboto;-inkscape-font-specification:Roboto;stroke-width:1.57447112"
         d="m 124.14819,188.42864 h -1.89633 v -4.73572 h -5.09448 v 4.73572 h -1.90659 v -11.091 h 1.90659 v 4.80747 h 5.09448 v -4.80747 h 1.89633 z" />
      <path
         inkscape:connector-curvature="0"
         id="path1071"
         style="font-style:normal;font-variant:normal;font-weight:normal;font-stretch:normal;font-size:20.99294662px;line-height:2;font-family:Roboto;-inkscape-font-specification:Roboto;stroke-width:1.57447112"
         d="m 126.68005,182.78063 q 0,-1.62982 0.63553,-2.93163 0.64578,-1.30181 1.78358,-2.00909 1.14805,-0.70728 2.61387,-0.70728 2.26535,0 3.65942,1.56832 1.40431,1.56832 1.40431,4.17194 v 0.13325 q 0,1.61958 -0.62528,2.91114 -0.61503,1.2813 -1.77333,1.99884 -1.14805,0.71753 -2.64462,0.71753 -2.2551,0 -3.65941,-1.56832 -1.39407,-1.56832 -1.39407,-4.15144 z m 1.90659,0.22551 q 0,1.84509 0.85079,2.96239 0.86104,1.1173 2.2961,1.1173 1.44532,0 2.2961,-1.12755 0.85079,-1.1378 0.85079,-3.17765 0,-1.82458 -0.87129,-2.95213 -0.86104,-1.1378 -2.2961,-1.1378 -1.40431,0 -2.26535,1.1173 -0.86104,1.1173 -0.86104,3.19814 z" />
      <path
         inkscape:connector-curvature="0"
         id="path1073"
         style="font-style:normal;font-variant:normal;font-weight:normal;font-stretch:normal;font-size:20.99294662px;line-height:2;font-family:Roboto;-inkscape-font-specification:Roboto;stroke-width:1.57447112"
         d="m 143.60357,187.08583 q 1.01479,0 1.77333,-0.61503 0.75853,-0.61503 0.84054,-1.53757 h 1.79383 q -0.0513,0.95329 -0.65603,1.81433 -0.60478,0.86104 -1.61958,1.37356 -1.00454,0.51253 -2.13209,0.51253 -2.26535,0 -3.60816,-1.50682 -1.33256,-1.51707 -1.33256,-4.14119 v -0.31776 q 0,-1.61957 0.59452,-2.88038 0.59453,-1.26081 1.70158,-1.95784 1.1173,-0.69703 2.63437,-0.69703 1.86558,0 3.09564,1.1173 1.2403,1.1173 1.32231,2.90088 h -1.79383 q -0.082,-1.0763 -0.82004,-1.76308 -0.72778,-0.69703 -1.80408,-0.69703 -1.44532,0 -2.24485,1.04555 -0.78929,1.03529 -0.78929,3.00338 v 0.35877 q 0,1.91683 0.78929,2.95213 0.78928,1.0353 2.2551,1.0353 z" />
      <path
         inkscape:connector-curvature="0"
         id="path1075"
         style="font-style:normal;font-variant:normal;font-weight:normal;font-stretch:normal;font-size:20.99294662px;line-height:2;font-family:Roboto;-inkscape-font-specification:Roboto;stroke-width:1.57447112"
         d="m 158.38473,178.87521 h -3.72091 v 9.55343 h -1.89634 v -9.55343 h -3.64916 v -1.53757 h 9.26641 z" />
      <path
         inkscape:connector-curvature="0"
         id="path1077"
         style="font-style:normal;font-variant:normal;font-weight:normal;font-stretch:normal;font-size:20.99294662px;line-height:2;font-family:Roboto;-inkscape-font-specification:Roboto;stroke-width:1.57447112"
         d="m 162.30041,181.16106 h 2.88038 q 1.88609,0.0205 2.98289,0.98405 1.0968,0.96354 1.0968,2.61386 0,1.66058 -1.12755,2.66512 -1.12756,1.00455 -3.03414,1.00455 h -4.69471 v -11.091 h 1.89633 z m 0,1.54782 v 4.17194 h 2.81888 q 1.06605,0 1.65032,-0.54328 0.58428,-0.55352 0.58428,-1.50681 0,-0.92255 -0.57403,-1.50682 -0.56377,-0.59453 -1.58882,-0.61503 z" />
      <path
         inkscape:connector-curvature="0"
         id="path1079"
         style="font-style:normal;font-variant:normal;font-weight:normal;font-stretch:normal;font-size:20.99294662px;line-height:2;font-family:Roboto;-inkscape-font-specification:Roboto;stroke-width:1.57447112"
         d="m 173.69893,182.0426 h 2.66512 q 0.21526,-2.2141 1.56832,-3.55691 1.36331,-1.35306 3.4339,-1.35306 2.1731,0 3.55691,1.46582 1.38381,1.46581 1.49657,3.81317 l 0.0103,0.59452 q 0,1.61958 -0.63553,2.92139 -0.63553,1.3018 -1.78358,2.00909 -1.14805,0.69703 -2.62412,0.69703 -2.14234,0 -3.50566,-1.39407 -1.36331,-1.40431 -1.52731,-3.63891 h -2.65487 v 4.82797 h -1.89634 v -11.091 h 1.89634 z m 4.5307,0.96354 q 0,1.84509 0.85079,2.96239 0.86104,1.1173 2.30635,1.1173 1.44532,0 2.28586,-1.1378 0.85078,-1.1378 0.85078,-3.1674 0,-1.81433 -0.86103,-2.95213 -0.86104,-1.1378 -2.29611,-1.1378 -1.41456,0 -2.2756,1.1173 -0.86104,1.1173 -0.86104,3.19814 z" />
      <path
         inkscape:connector-curvature="0"
         id="path1081"
         style="font-style:normal;font-variant:normal;font-weight:normal;font-stretch:normal;font-size:20.99294662px;line-height:2;font-family:Roboto;-inkscape-font-specification:Roboto;stroke-width:1.57447112"
         d="m 198.42303,187.08583 q 1.0148,0 1.77333,-0.61503 0.75854,-0.61503 0.84054,-1.53757 h 1.79383 q -0.0512,0.95329 -0.65603,1.81433 -0.60477,0.86104 -1.61957,1.37356 -1.00455,0.51253 -2.1321,0.51253 -2.26535,0 -3.60816,-1.50682 -1.33256,-1.51707 -1.33256,-4.14119 v -0.31776 q 0,-1.61957 0.59453,-2.88038 0.59452,-1.26081 1.70157,-1.95784 1.1173,-0.69703 2.63437,-0.69703 1.86559,0 3.09564,1.1173 1.24031,1.1173 1.32231,2.90088 h -1.79383 q -0.082,-1.0763 -0.82004,-1.76308 -0.72778,-0.69703 -1.80408,-0.69703 -1.44531,0 -2.24485,1.04555 -0.78928,1.03529 -0.78928,3.00338 v 0.35877 q 0,1.91683 0.78928,2.95213 0.78929,1.0353 2.2551,1.0353 z" />
      <path
         inkscape:connector-curvature="0"
         id="path1083"
         style="font-style:normal;font-variant:normal;font-weight:normal;font-stretch:normal;font-size:20.99294662px;line-height:2;font-family:Roboto;-inkscape-font-specification:Roboto;stroke-width:1.57447112"
         d="m 204.46056,182.78063 q 0,-1.62982 0.63552,-2.93163 0.64578,-1.30181 1.78358,-2.00909 1.14806,-0.70728 2.61387,-0.70728 2.26535,0 3.65942,1.56832 1.40431,1.56832 1.40431,4.17194 v 0.13325 q 0,1.61958 -0.62528,2.91114 -0.61503,1.2813 -1.77333,1.99884 -1.14805,0.71753 -2.64462,0.71753 -2.2551,0 -3.65941,-1.56832 -1.39406,-1.56832 -1.39406,-4.15144 z m 1.90658,0.22551 q 0,1.84509 0.85079,2.96239 0.86104,1.1173 2.2961,1.1173 1.44532,0 2.29611,-1.12755 0.85079,-1.1378 0.85079,-3.17765 0,-1.82458 -0.87129,-2.95213 -0.86104,-1.1378 -2.29611,-1.1378 -1.40431,0 -2.26535,1.1173 -0.86104,1.1173 -0.86104,3.19814 z" />
      <path
         inkscape:connector-curvature="0"
         id="path1085"
         style="font-style:normal;font-variant:normal;font-weight:normal;font-stretch:normal;font-size:20.99294662px;line-height:2;font-family:Roboto;-inkscape-font-specification:Roboto;stroke-width:1.57447112"
         d="m 224.10045,178.90596 h -5.11498 v 9.52268 h -1.90659 v -11.091 h 7.02157 z" />
      <path
         inkscape:connector-curvature="0"
         id="path1087"
         style="font-style:normal;font-variant:normal;font-weight:normal;font-stretch:normal;font-size:20.99294662px;line-height:2;font-family:Roboto;-inkscape-font-specification:Roboto;stroke-width:1.57447112"
         d="m 234.43292,177.33764 v 11.091 h -1.90659 v -9.52268 h -3.77217 l -0.22551,4.15144 q -0.18451,2.85988 -0.96354,4.08993 -0.76879,1.23006 -2.44986,1.28131 h -0.75854 v -1.67083 l 0.54328,-0.041 q 0.92254,-0.1025 1.32231,-1.06605 0.39977,-0.96354 0.51252,-3.56716 l 0.20501,-4.74596 z" />
      <path
         inkscape:connector-curvature="0"
         id="path1089"
         style="font-style:normal;font-variant:normal;font-weight:normal;font-stretch:normal;font-size:20.99294662px;line-height:2;font-family:Roboto;-inkscape-font-specification:Roboto;stroke-width:1.57447112"
         d="m 244.32462,188.42864 q -0.16401,-0.32802 -0.26651,-1.16855 -1.32231,1.37356 -3.15715,1.37356 -1.64007,0 -2.69587,-0.92254 -1.04555,-0.9328 -1.04555,-2.35761 0,-1.73233 1.31206,-2.68562 1.32231,-0.96354 3.71067,-0.96354 h 1.84508 v -0.87129 q 0,-0.9943 -0.59452,-1.57858 -0.59453,-0.59452 -1.75283,-0.59452 -1.0148,0 -1.70158,0.51252 -0.68678,0.51252 -0.68678,1.24031 h -1.90659 q 0,-0.83029 0.58428,-1.59908 0.59453,-0.77903 1.59907,-1.23005 1.0148,-0.45102 2.22435,-0.45102 1.91684,0 3.00339,0.96354 1.08655,0.9533 1.12755,2.63437 v 5.10473 q 0,1.52732 0.38952,2.42936 v 0.16401 z m -3.14689,-1.44532 q 0.89179,0 1.69132,-0.46127 0.79954,-0.46127 1.1583,-1.1993 v -2.2756 h -1.48631 q -3.48516,0 -3.48516,2.03984 0,0.89179 0.59453,1.39406 0.59452,0.50227 1.52732,0.50227 z" />
      <path
         inkscape:connector-curvature="0"
         id="path1091"
         style="font-style:normal;font-variant:normal;font-weight:normal;font-stretch:normal;font-size:20.99294662px;line-height:2;font-family:Roboto;-inkscape-font-specification:Roboto;stroke-width:1.57447112"
         d="m 253.36552,187.08583 q 1.0148,0 1.77333,-0.61503 0.75854,-0.61503 0.84054,-1.53757 h 1.79383 q -0.0512,0.95329 -0.65603,1.81433 -0.60477,0.86104 -1.61957,1.37356 -1.00455,0.51253 -2.1321,0.51253 -2.26535,0 -3.60816,-1.50682 -1.33256,-1.51707 -1.33256,-4.14119 v -0.31776 q 0,-1.61957 0.59453,-2.88038 0.59452,-1.26081 1.70157,-1.95784 1.1173,-0.69703 2.63437,-0.69703 1.86559,0 3.09564,1.1173 1.24031,1.1173 1.32231,2.90088 h -1.79383 q -0.082,-1.0763 -0.82004,-1.76308 -0.72778,-0.69703 -1.80408,-0.69703 -1.44531,0 -2.24485,1.04555 -0.78928,1.03529 -0.78928,3.00338 v 0.35877 q 0,1.91683 0.78928,2.95213 0.78929,1.0353 2.2551,1.0353 z" />
      <path
         inkscape:connector-curvature="0"
         id="path1093"
         style="font-style:normal;font-variant:normal;font-weight:normal;font-stretch:normal;font-size:20.99294662px;line-height:2;font-family:Roboto;-inkscape-font-specification:Roboto;stroke-width:1.57447112"
         d="m 264.50778,188.63365 q -2.25511,0 -3.66967,-1.47607 -1.41456,-1.48632 -1.41456,-3.96693 v -0.34851 q 0,-1.65033 0.62527,-2.94189 0.63553,-1.3018 1.76308,-2.02959 1.1378,-0.73803 2.46011,-0.73803 2.16285,0 3.36216,1.42481 1.1993,1.42482 1.1993,4.07969 v 0.78928 h -7.51359 q 0.041,1.64008 0.95329,2.65487 0.92255,1.00455 2.33711,1.00455 1.00455,0 1.70158,-0.41002 0.69703,-0.41002 1.2198,-1.08655 l 1.1583,0.90204 q -1.39406,2.14235 -4.18218,2.14235 z m -0.23577,-9.94295 q -1.14805,0 -1.92708,0.84054 -0.77904,0.83028 -0.96355,2.3371 h 5.55575 v -0.1435 q -0.082,-1.44532 -0.77903,-2.2346 -0.69703,-0.79954 -1.88609,-0.79954 z" />
      <path
         inkscape:connector-curvature="0"
         id="path1095"
         style="font-style:normal;font-variant:normal;font-weight:normal;font-stretch:normal;font-size:20.99294662px;line-height:2;font-family:Roboto;-inkscape-font-specification:Roboto;stroke-width:1.57447112"
         d="m 280.07822,188.42864 h -1.89633 v -4.73572 h -5.09448 v 4.73572 h -1.90659 v -11.091 h 1.90659 v 4.80747 h 5.09448 v -4.80747 h 1.89633 z" />
    </g>
  </g>
</svg>
